<?xml version="1.0" encoding="utf-8"?>
<!-- Generator: Adobe Illustrator 27.0.0, SVG Export Plug-In . SVG Version: 6.00 Build 0)  -->
<svg version="1.1" id="Icons_Flat_Same_Height_" xmlns="http://www.w3.org/2000/svg" xmlns:xlink="http://www.w3.org/1999/xlink"
	 x="0px" y="0px" viewBox="0 0 200 200" style="enable-background:new 0 0 200 200;" xml:space="preserve">
<style type="text/css">
	.st0{fill:#1D1D1B;}
</style>
<g>
	<polygon class="st0" points="48.8,125.8 48.4,125.8 48.4,125.8 48.6,125.8 	"/>
	<path class="st0" d="M74.2,150.7c0.1,0,0.2,0,0.3-0.1l0.2-0.1c0.1,0,0.2-0.1,0.3-0.1l0.1-0.1c0.2-0.1,0.3-0.2,0.4-0.3l77.2-77.2
		c1.7-1.7,2.6-3.9,2.6-6.3c0-2.4-0.9-4.6-2.6-6.3l0,0l-13-13c-3.3-3.3-9.2-3.3-12.5,0l-77.2,77.2c-0.1,0.1-0.2,0.3-0.3,0.4
		c0,0,0,0.1-0.1,0.1c-0.1,0.1-0.1,0.2-0.2,0.3l-0.1,0.2c0,0.1-0.1,0.2-0.1,0.4l0,0l0,0.2L44.8,152c-0.1,0.9,0.1,1.8,0.8,2.4
		c0.6,0.6,1.5,0.9,2.4,0.8l26-4.4l0,0L74.2,150.7l-0.1,0.3l0.1,0.5l0,0L74.2,150.7z M131,51.2c1.3-1.3,3.5-1.3,4.8,0l13,13
		c0.6,0.6,1,1.5,1,2.4c0,0.9-0.4,1.8-1,2.4l-8,8L123,59.1L131,51.2z M50.8,149.1l2.9-17l14.1,14.1L50.8,149.1z M73.5,144.3
		l-17.8-17.8L119.2,63L137,80.8L73.5,144.3z"/>
</g>
</svg>
