<?xml version="1.0" encoding="utf-8"?>
<!-- Generator: Adobe Illustrator 24.2.1, SVG Export Plug-In . SVG Version: 6.00 Build 0)  -->
<svg version="1.1" id="Ebene_1" xmlns="http://www.w3.org/2000/svg" xmlns:xlink="http://www.w3.org/1999/xlink" x="0px" y="0px"
	 viewBox="0 0 59.7 62.4" style="enable-background:new 0 0 59.7 62.4;" xml:space="preserve">
<polygon points="14.4,17.1 18.5,13 23.4,8.1 28.3,13 32.3,17.1 41,25.7 46.7,31.5 46.7,31.5 46.7,23.3 41,17.6 27.4,4.1 23.4,0 
	19.3,4.1 5.8,17.6 0,23.4 0,31.4 0,41.3 0,49.3 0,49.4 0,49.4 5.8,43.7 23.4,26 41,43.6 46.7,49.4 59.7,62.4 59.6,54.1 41,35.5 
	27.4,22 23.4,17.9 19.3,22 5.8,35.5 5.8,25.8 "/>
</svg>
