<?xml version="1.0" encoding="utf-8"?>
<!-- Generator: Adobe Illustrator 24.2.3, SVG Export Plug-In . SVG Version: 6.00 Build 0)  -->
<svg version="1.1" id="Ebene_1" xmlns="http://www.w3.org/2000/svg" xmlns:xlink="http://www.w3.org/1999/xlink" x="0px" y="0px"
	 viewBox="0 0 242.1 50.3" style="enable-background:new 0 0 242.1 50.3;" xml:space="preserve">
<g>
	<g>
		<g>
			<g>
				<path d="M48.9,14.7c0.5-1.3,1.1-2.5,2-3.5c0.9-1,1.9-1.8,3.2-2.3c1.3-0.6,2.7-0.8,4.3-0.8c1.6,0,3,0.3,4.3,0.8
					c1.3,0.6,2.3,1.3,3.2,2.3c0.9,1,1.5,2.1,2,3.5c0.5,1.3,0.7,2.8,0.7,4.3c0,1.5-0.2,2.9-0.7,4.2c-0.5,1.3-1.1,2.4-2,3.4
					c-0.9,1-1.9,1.7-3.2,2.3c-1.3,0.5-2.7,0.8-4.3,0.8c-1.6,0-3-0.3-4.3-0.8c-1.3-0.5-2.3-1.3-3.2-2.3c-0.9-1-1.5-2.1-2-3.4
					c-0.5-1.3-0.7-2.7-0.7-4.2C48.2,17.4,48.4,16,48.9,14.7z M53,21.5c0.2,0.8,0.5,1.6,1,2.2c0.4,0.7,1,1.2,1.7,1.6
					c0.7,0.4,1.6,0.6,2.6,0.6c1,0,1.9-0.2,2.6-0.6c0.7-0.4,1.3-0.9,1.7-1.6c0.4-0.7,0.8-1.4,1-2.2c0.2-0.8,0.3-1.7,0.3-2.5
					c0-0.9-0.1-1.8-0.3-2.6c-0.2-0.8-0.5-1.6-1-2.3c-0.4-0.7-1-1.2-1.7-1.6c-0.7-0.4-1.6-0.6-2.6-0.6c-1,0-1.9,0.2-2.6,0.6
					c-0.7,0.4-1.3,0.9-1.7,1.6c-0.4,0.7-0.8,1.4-1,2.3c-0.2,0.8-0.3,1.7-0.3,2.6C52.7,19.8,52.8,20.7,53,21.5z"/>
			</g>
			<g>
				<path d="M76.1,8.5l8.6,13.9h0.1V8.5H89v20.7h-4.5l-8.6-13.8h-0.1v13.8h-4.3V8.5H76.1z"/>
			</g>
			<g>
				<path d="M108.5,8.5v3.8H97.6v4.4h10v3.5h-10v5.1h11.1v3.8H93V8.5H108.5z"/>
			</g>
			<g>
				<path d="M122.9,8.5c0.9,0,1.8,0.1,2.5,0.4c0.7,0.3,1.4,0.7,1.9,1.2c0.5,0.5,0.9,1.1,1.2,1.8c0.3,0.7,0.4,1.4,0.4,2.2
					c0,1.2-0.3,2.3-0.8,3.2c-0.5,0.9-1.3,1.6-2.5,2v0.1c0.6,0.2,1,0.4,1.4,0.7c0.4,0.3,0.7,0.7,0.9,1.1c0.2,0.4,0.4,0.9,0.5,1.4
					c0.1,0.5,0.2,1,0.2,1.6c0,0.3,0,0.7,0.1,1.2c0,0.4,0.1,0.9,0.1,1.4c0,0.5,0.1,0.9,0.2,1.3c0.1,0.4,0.3,0.8,0.5,1.1H125
					c-0.3-0.7-0.4-1.4-0.5-2.3c-0.1-0.9-0.1-1.8-0.3-2.6c-0.2-1.1-0.5-1.9-1-2.4c-0.5-0.5-1.3-0.8-2.5-0.8h-4.5v8.1h-4.5V8.5H122.9z
					 M121.3,17.9c1,0,1.8-0.2,2.3-0.7c0.5-0.5,0.8-1.2,0.8-2.3c0-1-0.3-1.7-0.8-2.2c-0.5-0.5-1.3-0.7-2.3-0.7h-5v5.8H121.3z"/>
			</g>
			<g>
				<path d="M151,8.5l7.7,20.7H154l-1.6-4.6h-7.7l-1.6,4.6h-4.6l7.8-20.7H151z M151.3,21.2l-2.6-7.6h-0.1l-2.7,7.6H151.3z"/>
			</g>
			<g>
				<path d="M173.8,14.1c-0.3-0.4-0.6-0.8-1-1.1c-0.4-0.3-0.9-0.6-1.4-0.8c-0.5-0.2-1-0.3-1.6-0.3c-1,0-1.9,0.2-2.6,0.6
					c-0.7,0.4-1.3,0.9-1.7,1.6c-0.4,0.7-0.8,1.4-1,2.3c-0.2,0.8-0.3,1.7-0.3,2.6c0,0.9,0.1,1.7,0.3,2.5c0.2,0.8,0.5,1.6,1,2.2
					c0.4,0.7,1,1.2,1.7,1.6c0.7,0.4,1.6,0.6,2.6,0.6c1.4,0,2.5-0.4,3.3-1.3c0.8-0.8,1.3-2,1.4-3.4h4.4c-0.1,1.3-0.4,2.5-0.9,3.5
					c-0.5,1-1.1,1.9-1.9,2.7c-0.8,0.7-1.7,1.3-2.8,1.7c-1.1,0.4-2.2,0.6-3.5,0.6c-1.6,0-3-0.3-4.3-0.8c-1.3-0.5-2.3-1.3-3.2-2.3
					c-0.9-1-1.5-2.1-2-3.4c-0.5-1.3-0.7-2.7-0.7-4.2c0-1.5,0.2-3,0.7-4.3c0.5-1.3,1.1-2.5,2-3.5c0.9-1,1.9-1.8,3.2-2.3
					c1.3-0.6,2.7-0.8,4.3-0.8c1.1,0,2.2,0.2,3.2,0.5c1,0.3,1.9,0.8,2.7,1.4c0.8,0.6,1.5,1.4,2,2.3c0.5,0.9,0.8,2,1,3.2h-4.4
					C174.2,15,174.1,14.5,173.8,14.1z"/>
			</g>
			<g>
				<path d="M180.4,12.4V8.5h16.9v3.8h-6.2v16.8h-4.5V12.4H180.4z"/>
			</g>
			<g>
				<path d="M204.2,8.5v20.7h-4.5V8.5H204.2z"/>
			</g>
			<g>
				<path d="M212.7,29.2L206,8.5h4.7l4.6,14.5h0.1L220,8.5h4.7l-6.9,20.7H212.7z"/>
			</g>
			<g>
				<path d="M241.9,8.5v3.8H231v4.4h10v3.5h-10v5.1h11.1v3.8h-15.7V8.5H241.9z"/>
			</g>
		</g>
		<g>
			<g>
				<g>
					<path d="M60.6,36.4v0.5h-2v5.3h-0.5v-5.3h-2v-0.5H60.6z"/>
				</g>
				<g>
					<path d="M64.4,38.2c0.1-0.4,0.3-0.7,0.5-1c0.2-0.3,0.5-0.5,0.8-0.7c0.3-0.2,0.7-0.2,1.2-0.2c0.4,0,0.8,0.1,1.2,0.2
						c0.3,0.2,0.6,0.4,0.8,0.7c0.2,0.3,0.4,0.6,0.5,1c0.1,0.4,0.2,0.7,0.2,1.1c0,0.4-0.1,0.8-0.2,1.1c-0.1,0.4-0.3,0.7-0.5,0.9
						c-0.2,0.3-0.5,0.5-0.8,0.7c-0.3,0.2-0.7,0.2-1.2,0.2c-0.4,0-0.8-0.1-1.2-0.2c-0.3-0.2-0.6-0.4-0.8-0.7
						c-0.2-0.3-0.4-0.6-0.5-0.9c-0.1-0.4-0.2-0.7-0.2-1.1C64.2,38.9,64.2,38.5,64.4,38.2z M64.9,40.2c0.1,0.3,0.2,0.6,0.4,0.8
						c0.2,0.2,0.4,0.4,0.7,0.6c0.3,0.1,0.6,0.2,1,0.2c0.4,0,0.7-0.1,1-0.2c0.3-0.1,0.5-0.3,0.7-0.6c0.2-0.2,0.3-0.5,0.4-0.8
						c0.1-0.3,0.1-0.6,0.1-0.9c0-0.3,0-0.6-0.1-0.9c-0.1-0.3-0.2-0.6-0.4-0.8c-0.2-0.2-0.4-0.4-0.7-0.6c-0.3-0.1-0.6-0.2-1-0.2
						c-0.4,0-0.7,0.1-1,0.2c-0.3,0.1-0.5,0.3-0.7,0.6c-0.2,0.2-0.3,0.5-0.4,0.8c-0.1,0.3-0.1,0.6-0.1,0.9
						C64.7,39.6,64.8,39.9,64.9,40.2z"/>
				</g>
				<g>
					<path d="M81.7,36.4c0.2,0,0.5,0,0.7,0.1c0.2,0,0.4,0.1,0.6,0.2c0.2,0.1,0.3,0.3,0.4,0.4c0.1,0.2,0.2,0.4,0.2,0.7
						c0,0.1,0,0.3-0.1,0.4c0,0.1-0.1,0.3-0.2,0.4c-0.1,0.1-0.2,0.2-0.3,0.3c-0.1,0.1-0.3,0.1-0.4,0.2v0c0.4,0,0.7,0.2,0.9,0.5
						s0.3,0.6,0.3,0.9c0,0.1,0,0.2,0,0.3c0,0.1,0,0.2-0.1,0.4c0,0.1-0.1,0.2-0.2,0.4c-0.1,0.1-0.2,0.2-0.4,0.3
						c-0.2,0.1-0.3,0.2-0.6,0.2c-0.2,0.1-0.5,0.1-0.8,0.1h-2.4v-5.7H81.7z M81.7,39c0.2,0,0.4,0,0.6-0.1c0.2-0.1,0.3-0.1,0.4-0.2
						c0.1-0.1,0.2-0.2,0.2-0.3C83,38.2,83,38.1,83,38c0-0.7-0.4-1.1-1.3-1.1h-1.9v2H81.7z M81.7,41.7c0.2,0,0.4,0,0.6-0.1
						s0.3-0.1,0.5-0.2c0.1-0.1,0.2-0.2,0.3-0.4c0.1-0.2,0.1-0.3,0.1-0.6c0-0.4-0.1-0.6-0.4-0.8c-0.3-0.2-0.6-0.3-1.1-0.3h-1.9v2.3
						H81.7z"/>
				</g>
				<g>
					<path d="M91.9,36.4v0.5h-3.4V39h3.2v0.5h-3.2v2.3h3.4v0.5h-4v-5.7H91.9z"/>
				</g>
				<g>
					<path d="M105.5,36.4v0.5h-3.4V39h3.2v0.5h-3.2v2.3h3.4v0.5h-4v-5.7H105.5z"/>
				</g>
				<g>
					<path d="M109.7,36.4l1.6,2.4l1.7-2.4h0.6l-2,2.8l2.1,2.9h-0.7l-1.7-2.5l-1.8,2.5H109l2.1-3l-1.9-2.8H109.7z"/>
				</g>
				<g>
					<path d="M121.5,36.4v0.5h-2v5.3h-0.5v-5.3h-2v-0.5H121.5z"/>
				</g>
				<g>
					<path d="M127.9,36.4c0.2,0,0.5,0,0.7,0.1c0.2,0.1,0.4,0.1,0.6,0.3c0.2,0.1,0.3,0.3,0.4,0.5c0.1,0.2,0.1,0.4,0.1,0.7
						c0,0.4-0.1,0.7-0.3,0.9c-0.2,0.3-0.5,0.4-0.8,0.5v0c0.2,0,0.3,0.1,0.5,0.1c0.1,0.1,0.2,0.2,0.3,0.3c0.1,0.1,0.1,0.2,0.2,0.4
						c0,0.1,0.1,0.3,0.1,0.5c0,0.1,0,0.2,0,0.4c0,0.1,0,0.3,0,0.4c0,0.1,0,0.3,0.1,0.4c0,0.1,0.1,0.2,0.1,0.3h-0.6
						c0-0.1-0.1-0.1-0.1-0.2s0-0.2,0-0.2c0-0.1,0-0.2,0-0.2c0-0.1,0-0.1,0-0.2c0-0.2,0-0.4-0.1-0.6c0-0.2-0.1-0.4-0.2-0.5
						c-0.1-0.2-0.2-0.3-0.3-0.4c-0.1-0.1-0.3-0.1-0.6-0.1h-2.1v2.5h-0.5v-5.7H127.9z M127.9,39.2c0.2,0,0.3,0,0.5-0.1
						c0.1-0.1,0.3-0.1,0.4-0.2c0.1-0.1,0.2-0.2,0.3-0.3c0.1-0.1,0.1-0.3,0.1-0.5c0-0.4-0.1-0.6-0.3-0.8c-0.2-0.2-0.5-0.3-0.9-0.3h-2
						v2.3H127.9z"/>
				</g>
				<g>
					<path d="M136.3,36.4l2.2,5.7h-0.6l-0.7-1.8h-2.6l-0.7,1.8h-0.6l2.3-5.7H136.3z M137,39.9l-1.1-2.9l-1.1,2.9H137z"/>
				</g>
				<g>
					<path d="M142.2,38.2c0.1-0.4,0.3-0.7,0.5-1c0.2-0.3,0.5-0.5,0.8-0.7c0.3-0.2,0.7-0.2,1.2-0.2c0.4,0,0.8,0.1,1.2,0.2
						c0.3,0.2,0.6,0.4,0.8,0.7c0.2,0.3,0.4,0.6,0.5,1c0.1,0.4,0.2,0.7,0.2,1.1c0,0.4-0.1,0.8-0.2,1.1c-0.1,0.4-0.3,0.7-0.5,0.9
						c-0.2,0.3-0.5,0.5-0.8,0.7c-0.3,0.2-0.7,0.2-1.2,0.2c-0.4,0-0.8-0.1-1.2-0.2c-0.3-0.2-0.6-0.4-0.8-0.7s-0.4-0.6-0.5-0.9
						c-0.1-0.4-0.2-0.7-0.2-1.1C142,38.9,142.1,38.5,142.2,38.2z M142.7,40.2c0.1,0.3,0.2,0.6,0.4,0.8c0.2,0.2,0.4,0.4,0.7,0.6
						c0.3,0.1,0.6,0.2,1,0.2s0.7-0.1,1-0.2c0.3-0.1,0.5-0.3,0.7-0.6s0.3-0.5,0.4-0.8s0.1-0.6,0.1-0.9c0-0.3,0-0.6-0.1-0.9
						c-0.1-0.3-0.2-0.6-0.4-0.8s-0.4-0.4-0.7-0.6s-0.6-0.2-1-0.2s-0.7,0.1-1,0.2c-0.3,0.1-0.5,0.3-0.7,0.6c-0.2,0.2-0.3,0.5-0.4,0.8
						c-0.1,0.3-0.1,0.6-0.1,0.9C142.6,39.6,142.6,39.9,142.7,40.2z"/>
				</g>
				<g>
					<path d="M154.2,36.4c0.2,0,0.5,0,0.7,0.1c0.2,0.1,0.4,0.1,0.6,0.3c0.2,0.1,0.3,0.3,0.4,0.5c0.1,0.2,0.1,0.4,0.1,0.7
						c0,0.4-0.1,0.7-0.3,0.9c-0.2,0.3-0.5,0.4-0.8,0.5v0c0.2,0,0.3,0.1,0.5,0.1c0.1,0.1,0.2,0.2,0.3,0.3c0.1,0.1,0.1,0.2,0.2,0.4
						c0,0.1,0.1,0.3,0.1,0.5c0,0.1,0,0.2,0,0.4c0,0.1,0,0.3,0,0.4c0,0.1,0,0.3,0.1,0.4c0,0.1,0.1,0.2,0.1,0.3h-0.6
						c0-0.1-0.1-0.1-0.1-0.2s0-0.2,0-0.2c0-0.1,0-0.2,0-0.2c0-0.1,0-0.1,0-0.2c0-0.2,0-0.4-0.1-0.6c0-0.2-0.1-0.4-0.2-0.5
						c-0.1-0.2-0.2-0.3-0.3-0.4c-0.1-0.1-0.3-0.1-0.6-0.1h-2.1v2.5h-0.5v-5.7H154.2z M154.2,39.2c0.2,0,0.3,0,0.5-0.1
						c0.1-0.1,0.3-0.1,0.4-0.2c0.1-0.1,0.2-0.2,0.3-0.3c0.1-0.1,0.1-0.3,0.1-0.5c0-0.4-0.1-0.6-0.3-0.8c-0.2-0.2-0.5-0.3-0.9-0.3h-2
						v2.3H154.2z"/>
				</g>
				<g>
					<path d="M162.2,36.4c0.9,0,1.5,0.3,2,0.7c0.4,0.5,0.7,1.2,0.7,2.1c0,1-0.2,1.7-0.7,2.1c-0.4,0.5-1.1,0.7-2,0.7h-2v-5.7H162.2z
						 M162,41.7c0.4,0,0.8,0,1.1-0.1c0.3-0.1,0.5-0.2,0.7-0.4c0.2-0.2,0.3-0.4,0.4-0.7c0.1-0.3,0.1-0.7,0.1-1.1c0-0.4,0-0.8-0.1-1.1
						c-0.1-0.3-0.2-0.6-0.4-0.7c-0.2-0.2-0.4-0.3-0.7-0.4c-0.3-0.1-0.7-0.1-1.1-0.1h-1.2v4.8H162z"/>
				</g>
				<g>
					<path d="M169.6,36.4v5.7h-0.5v-5.7H169.6z"/>
				</g>
				<g>
					<path d="M174.7,36.4l3.3,4.8h0v-4.8h0.5v5.7H178l-3.3-4.8h0v4.8h-0.5v-5.7H174.7z"/>
				</g>
				<g>
					<path d="M185.4,36.4l2.2,5.7H187l-0.7-1.8h-2.6l-0.7,1.8h-0.6l2.3-5.7H185.4z M186.2,39.9l-1.1-2.9l-1.1,2.9H186.2z"/>
				</g>
				<g>
					<path d="M194.1,36.4c0.2,0,0.5,0,0.7,0.1c0.2,0.1,0.4,0.1,0.6,0.3c0.2,0.1,0.3,0.3,0.4,0.5c0.1,0.2,0.1,0.4,0.1,0.7
						c0,0.4-0.1,0.7-0.3,0.9c-0.2,0.3-0.5,0.4-0.8,0.5v0c0.2,0,0.3,0.1,0.5,0.1c0.1,0.1,0.2,0.2,0.3,0.3c0.1,0.1,0.1,0.2,0.2,0.4
						c0,0.1,0.1,0.3,0.1,0.5c0,0.1,0,0.2,0,0.4c0,0.1,0,0.3,0,0.4c0,0.1,0,0.3,0.1,0.4s0.1,0.2,0.1,0.3h-0.6c0-0.1-0.1-0.1-0.1-0.2
						s0-0.2,0-0.2c0-0.1,0-0.2,0-0.2c0-0.1,0-0.1,0-0.2c0-0.2,0-0.4-0.1-0.6c0-0.2-0.1-0.4-0.2-0.5c-0.1-0.2-0.2-0.3-0.3-0.4
						c-0.1-0.1-0.3-0.1-0.6-0.1H192v2.5h-0.5v-5.7H194.1z M194,39.2c0.2,0,0.3,0,0.5-0.1c0.1-0.1,0.3-0.1,0.4-0.2
						c0.1-0.1,0.2-0.2,0.3-0.3c0.1-0.1,0.1-0.3,0.1-0.5c0-0.4-0.1-0.6-0.3-0.8c-0.2-0.2-0.5-0.3-0.9-0.3h-2v2.3H194z"/>
				</g>
				<g>
					<path d="M199.5,36.4h0.6l1.9,2.9l1.9-2.9h0.6l-2.3,3.4v2.4h-0.5v-2.4L199.5,36.4z"/>
				</g>
				<g>
					<path d="M208.5,41.3h0.7v0.8h-0.7V41.3z"/>
				</g>
			</g>
		</g>
	</g>
	<g>
		<polygon points="18.9,6.6 37.7,25.4 37.7,25.4 37.7,18.8 18.9,0 0,18.9 0,39.8 0,39.8 0,39.8 18.9,21 48.2,50.3 48.2,43.8 
			18.9,14.4 4.6,28.7 4.6,20.8 		"/>
	</g>
</g>
</svg>
