<?xml version="1.0" encoding="utf-8"?>
<!-- Generator: Adobe Illustrator 24.2.3, SVG Export Plug-In . SVG Version: 6.00 Build 0)  -->
<svg version="1.1" id="Ebene_1" xmlns="http://www.w3.org/2000/svg" xmlns:xlink="http://www.w3.org/1999/xlink" x="0px" y="0px"
	 viewBox="0 0 260 260" style="enable-background:new 0 0 260 260;" xml:space="preserve">
<g>
	<path d="M130,4c33.7,0,65.3,13.1,89.1,36.9S256,96.3,256,130c0,33.7-13.1,65.3-36.9,89.1C195.3,242.9,163.7,256,130,256
		s-65.3-13.1-89.1-36.9S4,163.7,4,130c0-33.7,13.1-65.3,36.9-89.1S96.3,4,130,4 M130,0C58.2,0,0,58.2,0,130s58.2,130,130,130
		s130-58.2,130-130S201.8,0,130,0L130,0z"/>
	<path d="M188.1,176.5L188.1,176.5c-0.8-0.8-1.8-1.3-3-1.3h-0.6v-33.5v-6.9v-1.7c0-3-1.2-5.8-3.2-7.8c-2-2-4.8-3.2-7.8-3.2h-4.1
		v-12.7c0-0.9-0.4-1.8-1-2.4c-0.6-0.6-1.5-1-2.4-1h-1.3v-5.4c1.8-0.3,3.4-1.2,4.6-2.4l0,0c1.5-1.5,2.5-3.7,2.5-6.1
		c0-2.3-0.8-4.7-2-6.9c-1.5-2.8-3.6-5.3-5.5-7.2l0,0c-0.6-0.5-1.4-0.5-2,0c-1.9,1.9-4,4.5-5.5,7.2c-1.2,2.2-2,4.6-2,6.9
		c0,2.4,1,4.5,2.5,6.1c1.2,1.2,2.8,2.1,4.6,2.4v5.4h-1.3c-0.9,0-1.8,0.4-2.4,1s-1,1.5-1,2.4v12.7h-19.8V106c0-0.9-0.4-1.8-1-2.4
		c-0.6-0.6-1.5-1-2.4-1h-2.3v-5.8c2.2-0.3,4.2-1.3,5.7-2.8l0.1-0.1c1.8-1.8,2.9-4.3,2.9-7c0-2.7-1-5.5-2.4-8.2
		c-1.8-3.3-4.4-6.4-6.6-8.6c-0.6-0.5-1.4-0.5-2,0l0,0c-2.3,2.3-4.8,5.3-6.6,8.6c-1.4,2.6-2.4,5.5-2.4,8.2c0,2.8,1.1,5.3,2.9,7.1
		L123,94c1.5,1.5,3.4,2.5,5.6,2.8v5.8h-2.3c-0.9,0-1.8,0.4-2.4,1c-0.6,0.6-1,1.5-1,2.4v16.1h-19.8v-12.7c0-0.9-0.4-1.8-1-2.4
		c-0.6-0.6-1.5-1-2.4-1h-1.3v-5.4c1.8-0.3,3.4-1.2,4.6-2.4l0,0c1.5-1.5,2.5-3.7,2.5-6.1c0-2.3-0.8-4.7-2-6.9
		c-1.5-2.8-3.6-5.3-5.5-7.2c-0.6-0.5-1.4-0.5-2,0l0,0c-1.9,1.9-4,4.5-5.5,7.2c-1.2,2.2-2,4.6-2,6.9c0,2.4,1,4.5,2.5,6.1l0.1,0.1
		c1.2,1.2,2.8,2,4.6,2.3v5.4h-1.3c-0.9,0-1.8,0.4-2.4,1c-0.6,0.6-1,1.5-1,2.4v12.7h-4.1c-3,0-5.8,1.2-7.8,3.2c-2,2-3.2,4.8-3.2,7.8
		v1.7v6.9v33.5h-0.6c-1.2,0-2.2,0.5-3,1.2l0,0c-0.8,0.8-1.2,1.8-1.2,3v4.6c0,1.2,0.5,2.2,1.2,3l0,0c0.8,0.8,1.8,1.2,3,1.2h110.1
		c1.2,0,2.2-0.5,3-1.2l0,0c0.8-0.8,1.2-1.8,1.2-3v-4.6C189.3,178.4,188.8,177.3,188.1,176.5z M159,96.1c-1-1-1.7-2.5-1.7-4.1
		c0-1.8,0.7-3.7,1.7-5.5c1.1-2,2.6-3.9,4.1-5.5c1.5,1.6,2.9,3.5,4.1,5.5c1,1.8,1.7,3.8,1.7,5.5c0,1.6-0.6,3-1.7,4.1
		c-0.7,0.7-1.6,1.2-2.6,1.5v-3.3c0-0.8-0.6-1.4-1.4-1.4c-0.8,0-1.4,0.6-1.4,1.4v3.3C160.7,97.4,159.8,96.9,159,96.1z M159.8,109.3
		c0-0.2,0.1-0.3,0.2-0.4c0.1-0.1,0.3-0.2,0.4-0.2h2.7l0,0l0,0h2.7c0.2,0,0.3,0.1,0.4,0.2c0.1,0.1,0.2,0.3,0.2,0.4v12.7h-6.7V109.3z
		 M125,92L125,92c-1.4-1.4-2.2-3.2-2.2-5.2c0-2.2,0.8-4.6,2.1-6.8c1.4-2.6,3.3-5,5.1-7c1.8,2,3.8,4.4,5.1,7c1.2,2.3,2.1,4.6,2.1,6.8
		c0,2-0.8,3.7-2,5l-0.1,0.1c-1,1-2.3,1.7-3.7,2v-4.4c0-0.8-0.6-1.4-1.4-1.4c-0.8,0-1.4,0.6-1.4,1.4v4.4
		C127.2,93.6,125.9,92.9,125,92z M125.7,106c0-0.2,0.1-0.3,0.2-0.4c0.1-0.1,0.3-0.2,0.4-0.2h7.5c0.2,0,0.3,0.1,0.4,0.2
		c0.1,0.1,0.2,0.3,0.2,0.4v16.1h-8.6V106z M92.9,96.2L92.9,96.2c-1.1-1.1-1.7-2.5-1.7-4.1c0-1.8,0.7-3.7,1.7-5.5
		c1.1-2,2.6-3.9,4.1-5.5c1.5,1.6,3,3.5,4.1,5.5c1,1.8,1.7,3.8,1.7,5.5c0,1.6-0.6,3-1.7,4.1c-0.7,0.7-1.6,1.2-2.6,1.5v-3.3
		c0-0.8-0.6-1.4-1.4-1.4c-0.8,0-1.4,0.6-1.4,1.4v3.3C94.5,97.4,93.6,96.9,92.9,96.2z M93.6,109.3c0-0.2,0.1-0.3,0.2-0.4
		c0.1-0.1,0.3-0.2,0.4-0.2h5.5c0.2,0,0.3,0.1,0.4,0.2c0.1,0.1,0.2,0.3,0.2,0.4v12.7h-6.7V109.3z M78.4,142.8c0.2,0,0.3-0.1,0.5-0.1
		c0.5-0.1,1-0.1,1.5-0.1c1.3,0,2.5,0.2,3.6,0.7c1.1,0.5,2.2,1.2,3,2l0,0c2.2,2.2,2.4,4.2,2.6,6.1c0.2,2,0.4,3.8,2.2,5.6l0,0
		c0.7,0.7,1.5,1.2,2.3,1.6c0.9,0.4,1.8,0.5,2.8,0.5c1,0,1.9-0.2,2.8-0.5c0.9-0.4,1.7-0.9,2.3-1.6l0,0c1.8-1.8,2-3.6,2.2-5.6
		c0.2-1.9,0.5-3.9,2.6-6.1l0,0c0.9-0.9,1.9-1.5,3-2c1.1-0.5,2.3-0.7,3.6-0.7c1.3,0,2.5,0.2,3.6,0.7c1.1,0.5,2.2,1.2,3,2l0,0
		c2.2,2.2,2.4,4.2,2.6,6.1c0.2,2,0.4,3.8,2.2,5.6l0,0c0.7,0.7,1.5,1.2,2.3,1.6c0.9,0.4,1.8,0.5,2.8,0.5c1,0,1.9-0.2,2.8-0.5
		c0.9-0.4,1.7-0.9,2.3-1.6l0,0c1.8-1.8,2-3.6,2.2-5.6c0.2-1.9,0.5-3.9,2.6-6.1l0,0c0.9-0.9,1.9-1.5,3-2c1.1-0.5,2.3-0.7,3.6-0.7
		c1.3,0,2.5,0.2,3.6,0.7c1.1,0.5,2.2,1.2,3,2l0,0c2.2,2.2,2.4,4.2,2.6,6.1c0.2,2,0.4,3.8,2.2,5.6l0,0c0.7,0.7,1.5,1.2,2.3,1.6
		c0.9,0.4,1.8,0.5,2.8,0.5c1,0,1.9-0.2,2.8-0.5c0.9-0.4,1.7-0.9,2.3-1.6l0,0c1.8-1.8,2-3.6,2.2-5.6c0.2-1.9,0.5-3.9,2.6-6.1l0,0
		c0.9-0.9,1.9-1.5,3-2c1.1-0.5,2.3-0.7,3.6-0.7c0.5,0,1,0,1.5,0.1c0.2,0,0.3,0.1,0.5,0.1v32.5H78.4V142.8z M186.5,184.2
		c0,0.4-0.2,0.7-0.4,1l0,0c-0.3,0.3-0.6,0.4-1,0.4H74.9c-0.4,0-0.7-0.2-1-0.4l0,0c-0.3-0.3-0.4-0.6-0.4-1v-4.6c0-0.4,0.2-0.7,0.4-1
		l0,0c0.3-0.3,0.6-0.4,1-0.4h0.6h108.9h0.6c0.4,0,0.7,0.2,1,0.4l0,0c0.3,0.3,0.4,0.6,0.4,1V184.2z"/>
</g>
</svg>
