<?xml version="1.0" encoding="utf-8"?>
<!-- Generator: Adobe Illustrator 24.2.3, SVG Export Plug-In . SVG Version: 6.00 Build 0)  -->
<svg version="1.1" id="Ebene_1" xmlns="http://www.w3.org/2000/svg" xmlns:xlink="http://www.w3.org/1999/xlink" x="0px" y="0px"
	 viewBox="0 0 260 260" style="enable-background:new 0 0 260 260;" xml:space="preserve">
<g>
	<path d="M130,4c33.7,0,65.3,13.1,89.1,36.9S256,96.3,256,130c0,33.7-13.1,65.3-36.9,89.1S163.7,256,130,256s-65.3-13.1-89.1-36.9
		C17.1,195.3,4,163.7,4,130c0-33.7,13.1-65.3,36.9-89.1C64.7,17.1,96.3,4,130,4 M130,0C58.2,0,0,58.2,0,130s58.2,130,130,130
		s130-58.2,130-130S201.8,0,130,0L130,0z"/>
	<g>
		<path d="M184.8,110.6h-3.9l-14.4,39.7H99.2c-5-19.1-12.4-47.2-12.8-48.2c-0.3-0.7-0.8-2-22.4-13.6l-1.8,3.3c9,4.9,19,10.5,20.8,12
			c1.1,3.9,10.5,39.3,16.7,63l0.4,1.4h66v-3.7h-63.1c-0.6-2.4-1.6-6-2.7-10.3h69L184.8,110.6z"/>
		<path d="M113.2,170.9c-5.4,0-9.7,4.4-9.7,9.7c0,5.4,4.4,9.7,9.7,9.7c5.4,0,9.7-4.4,9.7-9.7C122.9,175.2,118.5,170.9,113.2,170.9z
			 M113.2,186.6c-3.3,0-6-2.7-6-6c0-3.3,2.7-6,6-6c3.3,0,6,2.7,6,6C119.1,183.9,116.5,186.6,113.2,186.6z"/>
		<path d="M153.1,170.9c-5.4,0-9.7,4.4-9.7,9.7c0,5.4,4.4,9.7,9.7,9.7s9.7-4.4,9.7-9.7C162.8,175.2,158.5,170.9,153.1,170.9z
			 M153.1,186.6c-3.3,0-6-2.7-6-6c0-3.3,2.7-6,6-6c3.3,0,6,2.7,6,6C159.1,183.9,156.4,186.6,153.1,186.6z"/>
		<path d="M134.5,132.3c17.3,0,31.3-14,31.3-31.3c0-17.3-14-31.3-31.3-31.3c-17.3,0-31.3,14-31.3,31.3
			C103.2,118.3,117.2,132.3,134.5,132.3z M125.9,106.8h3.5c0,1.9,0.5,3.3,1.4,4.1c1,0.8,2.1,1.2,3.5,1.2c1.6,0,2.8-0.4,3.7-1.1
			c0.9-0.8,1.3-1.8,1.3-3.2c0-1.1-0.4-2-1.2-2.8c-0.8-0.8-2.1-1.5-3.9-2.1c-2.5-0.8-4.4-1.8-5.6-3c-1.3-1.3-1.9-2.9-1.9-5
			c0-2,0.6-3.7,1.7-5c1.2-1.3,2.8-2.1,4.8-2.3v-4.1h2.9v4.1c2.1,0.3,3.7,1.2,4.8,2.7c1.1,1.5,1.7,3.5,1.7,5.9h-3.6
			c0-1.7-0.4-3-1.2-4.1c-0.8-1-1.9-1.6-3.2-1.6c-1.5,0-2.5,0.4-3.3,1.1c-0.7,0.8-1.1,1.8-1.1,3.1c0,1.2,0.4,2.2,1.1,2.9
			c0.7,0.7,2.1,1.4,4,2.1c2.5,0.8,4.4,1.8,5.6,3c1.2,1.2,1.8,2.9,1.8,5c0,2.1-0.6,3.8-1.9,5.1c-1.3,1.3-3,2-5.2,2.2v3.6H133V115
			c-2.1-0.2-3.9-1-5.2-2.3C126.4,111.4,125.8,109.4,125.9,106.8L125.9,106.8z"/>
	</g>
</g>
</svg>
