<?xml version="1.0" encoding="utf-8"?>
<!-- Generator: Adobe Illustrator 24.2.3, SVG Export Plug-In . SVG Version: 6.00 Build 0)  -->
<svg version="1.1" id="Ebene_1" xmlns="http://www.w3.org/2000/svg" xmlns:xlink="http://www.w3.org/1999/xlink" x="0px" y="0px"
	 viewBox="0 0 260 260" style="enable-background:new 0 0 260 260;" xml:space="preserve">
<g>
	<path d="M130,4c33.7,0,65.3,13.1,89.1,36.9C242.9,64.7,256,96.3,256,130s-13.1,65.3-36.9,89.1C195.3,242.9,163.7,256,130,256
		s-65.3-13.1-89.1-36.9C17.1,195.3,4,163.7,4,130s13.1-65.3,36.9-89.1C64.7,17.1,96.3,4,130,4 M130,0C58.2,0,0,58.2,0,130
		s58.2,130,130,130s130-58.2,130-130S201.8,0,130,0L130,0z"/>
	<g>
		<path d="M160.3,95.4c-2.1,0-3.7,1.7-3.7,3.7c0,2.1,1.7,3.7,3.7,3.7c2.1,0,3.7-1.7,3.7-3.7C164,97.1,162.4,95.4,160.3,95.4"/>
		<path d="M130.2,154c-13.1,0-23.8-10.7-23.8-23.8c0-13.1,10.7-23.8,23.8-23.8c13.1,0,23.8,10.7,23.8,23.8
			C154,143.3,143.3,154,130.2,154 M130.2,101.6c-15.8,0-28.6,12.8-28.6,28.6c0,15.8,12.8,28.6,28.6,28.6s28.6-12.8,28.6-28.6
			C158.8,114.4,145.9,101.6,130.2,101.6"/>
		<path d="M178.7,162.4c0,4.3-1.7,8.4-4.8,11.5c-3.1,3.1-7.2,4.8-11.5,4.8H97.6c-4.3,0-8.4-1.7-11.5-4.8s-4.8-7.2-4.8-11.5V97.6
			c0-4.3,1.7-8.4,4.8-11.5c3.1-3.1,7.2-4.8,11.5-4.8h64.8c4.3,0,8.4,1.7,11.5,4.8c3.1,3.1,4.8,7.2,4.8,11.5V162.4z M177.3,82.7
			c-4-4-9.3-6.2-14.9-6.2H97.6c-5.6,0-10.9,2.2-14.9,6.2c-4,4-6.2,9.3-6.2,14.9v64.8c0,5.6,2.2,10.9,6.2,14.9c4,4,9.3,6.2,14.9,6.2
			h64.8c5.6,0,10.9-2.2,14.9-6.2c4-4,6.2-9.3,6.2-14.9V97.6C183.5,92,181.3,86.7,177.3,82.7"/>
	</g>
</g>
</svg>
