<?xml version="1.0" encoding="utf-8"?>
<!-- Generator: Adobe Illustrator 24.2.3, SVG Export Plug-In . SVG Version: 6.00 Build 0)  -->
<svg version="1.1" id="Ebene_1" xmlns="http://www.w3.org/2000/svg" xmlns:xlink="http://www.w3.org/1999/xlink" x="0px" y="0px"
	 viewBox="0 0 260 260" style="enable-background:new 0 0 260 260;" xml:space="preserve">
<g>
	<path d="M130,4c33.7,0,65.3,13.1,89.1,36.9S256,96.3,256,130c0,33.7-13.1,65.3-36.9,89.1C195.3,242.9,163.7,256,130,256
		s-65.3-13.1-89.1-36.9C17.1,195.3,4,163.7,4,130c0-33.7,13.1-65.3,36.9-89.1S96.3,4,130,4 M130,0C58.2,0,0,58.2,0,130
		s58.2,130,130,130s130-58.2,130-130S201.8,0,130,0L130,0z"/>
	<g>
		<path d="M166.7,139.7c-15.4,0-27.8,12.5-27.8,27.8s12.5,27.8,27.8,27.8s27.8-12.5,27.8-27.8S182.1,139.7,166.7,139.7z
			 M177.4,170.1h-8.1v8.1c0,1.4-1.1,2.6-2.6,2.6s-2.6-1.1-2.6-2.6v-8.1H156c-1.4,0-2.6-1.1-2.6-2.6s1.1-2.6,2.6-2.6h8.1v-8.1
			c0-1.4,1.1-2.6,2.6-2.6s2.6,1.1,2.6,2.6v8.1h8.1c1.4,0,2.6,1.1,2.6,2.6S178.9,170.1,177.4,170.1z"/>
		<path d="M128.2,120.4c11.8,0,21.4-9.6,21.4-21.4v-8.6c0-11.8-9.6-21.4-21.4-21.4s-21.4,9.6-21.4,21.4v8.6
			C106.8,110.8,116.4,120.4,128.2,120.4z M111.1,90.5c0-9.4,7.7-17.1,17.1-17.1s17.1,7.7,17.1,17.1v8.6c0,9.4-7.7,17.1-17.1,17.1
			s-17.1-7.7-17.1-17.1V90.5z"/>
		<path d="M130.4,167.5H89.7c0-21.2,17.3-38.5,38.5-38.5c8.7,0,16.8,2.8,23.6,8.1c0.9,0.7,2.3,0.6,3-0.4c0.7-0.9,0.6-2.3-0.4-3
			c-7.6-5.9-16.7-9-26.3-9c-23.6,0-42.8,19.2-42.8,42.8v2.1c0,1.2,1,2.1,2.1,2.1h42.8c1.2,0,2.1-1,2.1-2.1S131.6,167.5,130.4,167.5z
			"/>
	</g>
</g>
</svg>
