<?xml version="1.0" encoding="utf-8"?>
<!-- Generator: Adobe Illustrator 24.2.3, SVG Export Plug-In . SVG Version: 6.00 Build 0)  -->
<svg version="1.1" id="Ebene_1" xmlns="http://www.w3.org/2000/svg" xmlns:xlink="http://www.w3.org/1999/xlink" x="0px" y="0px"
	 viewBox="0 0 260 260" style="enable-background:new 0 0 260 260;" xml:space="preserve">
<g>
	<path d="M130,4c33.7,0,65.3,13.1,89.1,36.9S256,96.3,256,130c0,33.7-13.1,65.3-36.9,89.1C195.3,242.9,163.7,256,130,256
		s-65.3-13.1-89.1-36.9C17.1,195.3,4,163.7,4,130c0-33.7,13.1-65.3,36.9-89.1S96.3,4,130,4 M130,0C58.2,0,0,58.2,0,130
		s58.2,130,130,130s130-58.2,130-130S201.8,0,130,0L130,0z"/>
	<path d="M103.8,111.6h11.2v-10.9c0-4.8,0.1-12.2,3.6-16.8c3.7-4.9,8.7-8.2,17.4-8.2c14.1,0,20.1,2,20.1,2l-2.8,16.6
		c0,0-4.7-1.4-9-1.4c-4.4,0-8.3,1.6-8.3,5.9v12.7h17.9l-1.2,16.2h-16.6v56.3h-21v-56.3h-11.2V111.6z"/>
</g>
</svg>
