<?xml version="1.0" encoding="utf-8"?>
<!-- Generator: Adobe Illustrator 24.2.3, SVG Export Plug-In . SVG Version: 6.00 Build 0)  -->
<svg version="1.1" id="Ebene_1" xmlns="http://www.w3.org/2000/svg" xmlns:xlink="http://www.w3.org/1999/xlink" x="0px" y="0px"
	 viewBox="0 0 260 260" style="enable-background:new 0 0 260 260;" xml:space="preserve">
<style type="text/css">
	.st0{fill:#42ADD5;}
</style>
<g>
	<path class="st0" d="M128.2,116.2c9.4,0,17.1-7.7,17.1-17.1v-8.6c0-9.4-7.7-17.1-17.1-17.1s-17.1,7.7-17.1,17.1v8.6
		C111.1,108.5,118.8,116.2,128.2,116.2z"/>
	<path class="st0" d="M130,0C58.2,0,0,58.2,0,130s58.2,130,130,130s130-58.2,130-130S201.8,0,130,0z M106.8,90.5
		c0-11.8,9.6-21.4,21.4-21.4s21.4,9.6,21.4,21.4v8.6c0,11.8-9.6,21.4-21.4,21.4s-21.4-9.6-21.4-21.4V90.5z M130.4,171.8H87.6
		c-1.2,0-2.1-1-2.1-2.1v-2.1c0-23.6,19.2-42.8,42.8-42.8c9.6,0,18.7,3.1,26.3,9c0.9,0.7,1.1,2.1,0.4,3c-0.7,0.9-2.1,1.1-3,0.4
		c-6.8-5.3-15-8.1-23.6-8.1c-21.2,0-38.5,17.3-38.5,38.5h40.6c1.2,0,2.1,1,2.1,2.1S131.6,171.8,130.4,171.8z M166.7,195.3
		c-15.4,0-27.8-12.5-27.8-27.8c0-15.4,12.5-27.8,27.8-27.8s27.8,12.5,27.8,27.8C194.6,182.9,182.1,195.3,166.7,195.3z"/>
	<path class="st0" d="M177.4,165h-8.1v-8.1c0-1.4-1.1-2.6-2.6-2.6s-2.6,1.1-2.6,2.6v8.1H156c-1.4,0-2.6,1.1-2.6,2.6s1.1,2.6,2.6,2.6
		h8.1v8.1c0,1.4,1.1,2.6,2.6,2.6s2.6-1.1,2.6-2.6v-8.1h8.1c1.4,0,2.6-1.1,2.6-2.6S178.9,165,177.4,165z"/>
</g>
</svg>
