<?xml version="1.0" encoding="utf-8"?>
<!-- Generator: Adobe Illustrator 24.2.3, SVG Export Plug-In . SVG Version: 6.00 Build 0)  -->
<svg version="1.1" id="Ebene_1" xmlns="http://www.w3.org/2000/svg" xmlns:xlink="http://www.w3.org/1999/xlink" x="0px" y="0px"
	 viewBox="0 0 260 260" style="enable-background:new 0 0 260 260;" xml:space="preserve">
<g>
	<path d="M130,4c33.7,0,65.3,13.1,89.1,36.9C242.9,64.7,256,96.3,256,130s-13.1,65.3-36.9,89.1C195.3,242.9,163.7,256,130,256
		s-65.3-13.1-89.1-36.9C17.1,195.3,4,163.7,4,130s13.1-65.3,36.9-89.1C64.7,17.1,96.3,4,130,4 M130,0C58.2,0,0,58.2,0,130
		s58.2,130,130,130s130-58.2,130-130S201.8,0,130,0L130,0z"/>
	<path d="M184,103.1c-3.9,1.7-8.1,2.9-12.5,3.4c4.5-2.7,8-7,9.6-12c-4.2,2.5-8.9,4.3-13.8,5.3c-4-4.2-9.6-6.9-15.9-6.9
		c-12,0-21.8,9.8-21.8,21.8c0,1.7,0.2,3.4,0.6,5C112,118.7,96,110,85.2,96.8c-1.9,3.2-2.9,7-2.9,11c0,7.6,3.8,14.2,9.7,18.1
		c-3.6-0.1-6.9-1.1-9.9-2.7v0.3c0,10.6,7.5,19.4,17.5,21.4c-1.8,0.5-3.8,0.8-5.7,0.8c-1.4,0-2.8-0.1-4.1-0.4
		c2.8,8.7,10.8,15,20.3,15.1c-7.5,5.8-16.9,9.3-27.1,9.3c-1.8,0-3.5-0.1-5.2-0.3c9.6,6.2,21.1,9.8,33.4,9.8c40.1,0,62-33.2,62-62
		c0-0.9,0-1.9-0.1-2.8C177.4,111.3,181.1,107.4,184,103.1"/>
</g>
</svg>
