<?xml version="1.0" encoding="utf-8"?>
<!-- Generator: Adobe Illustrator 24.2.3, SVG Export Plug-In . SVG Version: 6.00 Build 0)  -->
<svg version="1.1" id="Ebene_1" xmlns="http://www.w3.org/2000/svg" xmlns:xlink="http://www.w3.org/1999/xlink" x="0px" y="0px"
	 viewBox="0 0 260 260" style="enable-background:new 0 0 260 260;" xml:space="preserve">
<style type="text/css">
	.st0{fill:#42ADD5;}
</style>
<path class="st0" d="M130,0C58.2,0,0,58.2,0,130s58.2,130,130,130s130-58.2,130-130S201.8,0,130,0z M123.2,88.3l10.5-21.2l10.5,21.2
	l23.4,3.4l-17,16.5l4,23.3l-21-11l-21,11l4-23.3l-17-16.5L123.2,88.3z M181,155.2c-0.4,2.4-1.7,4.5-3.7,5.9l-37.2,26.3
	c-0.7,0.5-1.5,0.9-2.3,1.2c-1,0.3-2,0.5-3,0.5c-0.4,0-0.7,0-1.1-0.1l-0.1,0c0,0,0,0,0,0l-0.1,0c0,0,0,0-0.1,0l0,0l-34.7-8.8l-0.1,0
	c-0.2,0-0.5-0.1-0.8-0.1c-1.2,0-2.3,0.4-3.2,1l-2.5,1.8l1.9,2.6c0.6,0.8,0.4,1.9-0.4,2.5l-6.3,4.5c-0.3,0.2-0.7,0.3-1.1,0.3
	c-1,0-1.8-0.8-1.8-1.8c0-0.5,0.2-1,0.6-1.3c0.1-0.1,0.2-0.2,0.3-0.2l4.7-3.3l-20.3-28.6l-5.1,3.6l0,0c-0.3,0.3-0.7,0.4-1.1,0.4
	c-1,0-1.8-0.8-1.8-1.8c0-0.6,0.3-1.1,0.7-1.4l0,0c0,0,0,0,0,0l6.6-4.7c0.3-0.2,0.7-0.3,1-0.3c0.6,0,1.1,0.3,1.5,0.8l1.8,2.6
	l16.1-11.5c2.5-1.8,5.5-2.7,8.5-2.7c0.8,0,1.7,0.1,2.5,0.2c0.1,0,0.2,0,0.3,0.1l0,0l39.5,11.5c4.8,1.4,7.6,6.4,6.3,11.1
	c-0.6,2.3-2.1,4.3-4.3,5.5c-1.4,0.8-2.9,1.2-4.5,1.2c-0.8,0-1.6-0.1-2.3-0.3c0,0,0,0,0,0l-20.4-4.9c-0.4-0.1-0.8-0.3-1-0.7
	c-0.3-0.4-0.4-0.9-0.3-1.4c0.2-0.8,0.9-1.4,1.7-1.4c0.1,0,0.3,0,0.4,0l20.4,4.9c0,0,0,0,0,0c0,0,0,0,0,0l0,0c0.5,0.1,1,0.2,1.5,0.2
	c1,0,1.9-0.3,2.8-0.7c1.3-0.7,2.2-1.9,2.6-3.3c0.8-2.9-1-5.9-3.9-6.7l0,0L100,146.2l-0.1,0c-0.6-0.1-1.1-0.1-1.7-0.1
	c-2.3,0-4.6,0.7-6.5,2.1l-16.1,11.5L90.1,180l2.5-1.8c1.6-1.1,3.4-1.7,5.3-1.7c0.5,0,0.9,0,1.4,0.1c0.1,0,0.1,0,0.2,0l34.6,8.8l0,0
	l0.1,0c0.2,0,0.4,0,0.6,0c0.6,0,1.2-0.1,1.8-0.3c0.5-0.2,1-0.4,1.4-0.7l37.2-26.3c1.2-0.9,2-2.1,2.3-3.6c0.3-1.5-0.1-3-1-4.2
	c-1-1.5-2.8-2.4-4.6-2.4c-1.2,0-2.3,0.4-3.2,1l-13.9,9.7c-0.3,0.2-0.7,0.3-1,0.3c-0.6,0-1.1-0.3-1.5-0.8c-0.3-0.4-0.4-0.9-0.3-1.3
	c0.1-0.5,0.3-0.9,0.7-1.2l13.9-9.7c1.6-1.1,3.4-1.7,5.3-1.7c3,0,5.8,1.4,7.5,3.9C180.9,150.4,181.5,152.8,181,155.2z"/>
</svg>
