<?xml version="1.0" encoding="utf-8"?>
<!-- Generator: Adobe Illustrator 24.2.3, SVG Export Plug-In . SVG Version: 6.00 Build 0)  -->
<svg version="1.1" id="Ebene_1" xmlns="http://www.w3.org/2000/svg" xmlns:xlink="http://www.w3.org/1999/xlink" x="0px" y="0px"
	 viewBox="0 0 260 260" style="enable-background:new 0 0 260 260;" xml:space="preserve">
<style type="text/css">
	.st0{fill:#42ADD5;}
</style>
<g>
	<path class="st0" d="M101.4,120.7c2,2.1,4.5,3.7,7.1,4.9l16.9-18.9L99,76.8c-0.8,6.3-1.8,16.2-2.5,29.5
		C96.1,112.1,97.8,117,101.4,120.7z"/>
	<path class="st0" d="M129.9,129.7c0.5,0,7.1,0.1,14.4-1.7L130,111.8L115.4,128C122.7,129.9,129.5,129.8,129.9,129.7z"/>
	<path class="st0" d="M130,0C58.2,0,0,58.2,0,130s58.2,130,130,130s130-58.2,130-130S201.8,0,130,0z M182.4,168.9
		c-1,1.6-2.2,2.9-3.5,4.1l-2.4,14.8c-0.1,0.5-0.4,0.9-0.8,1.1c-2.7,1.5-5.9,2.5-9.4,2.9c-6.5,0.8-20.2,1.1-33,1.1
		c-8.9,0-17.5-0.1-23-0.2c-2.6,0-4.5-0.1-5.4-0.1c-3.4,0-7.2-0.3-11.5-0.8c-3.7-0.5-6.9-1.5-9.8-3.2c-0.4-0.2-0.7-0.6-0.7-1.1
		l-2.3-14.9c-1.2-1.1-2.2-2.4-3.1-3.8c-7.8-12.4-3.6-39.4,1-53.5c1.5-4.7,2.6-9.6,3.2-14.6l3.6-27.7c0.1-0.5,0.4-1,0.9-1.2L98,67.2
		c0,0,0,0,0,0c0.1,0,0.2-0.1,0.3-0.1c0,0,0,0,0.1,0c0.1,0,0.1,0,0.2,0c0,0,0.1,0,0.1,0c0,0,0.1,0,0.1,0c0.1,0,0.2,0,0.3,0.1
		c0,0,0,0,0.1,0c0.1,0.1,0.2,0.1,0.3,0.2c0,0,0,0,0,0c0,0,0,0,0,0c0,0,0.1,0.1,0.1,0.1l30.2,33.9l30.3-33.9c0,0,0.1-0.1,0.1-0.1
		c0,0,0,0,0,0c0,0,0,0,0,0c0.1-0.1,0.2-0.1,0.3-0.2c0,0,0.1,0,0.1,0c0.1,0,0.2-0.1,0.3-0.1c0,0,0.1,0,0.1,0c0.1,0,0.2,0,0.3,0
		c0,0,0.1,0,0.1,0c0.1,0,0.2,0,0.3,0.1c0,0,0,0,0,0l11.7,4.6c0.5,0.2,0.9,0.7,0.9,1.2l3.6,27.7c0.7,5,1.8,10,3.2,14.6
		C186,129.5,190.2,156.5,182.4,168.9z"/>
	<path class="st0" d="M175.2,101.1l-3.5-26.8l-8.4-3.3c0.7,5.1,2.3,17,3.2,35.2c0.5,7.2-1.8,13.2-6.8,17.7c-10.4,9.4-29,9-29.8,8.9
		c-0.7,0-19.3,0.5-29.7-8.9c-5-4.5-7.2-10.4-6.8-17.7C94.4,88,95.9,76.1,96.7,71l-8.4,3.3l-3.5,26.8c-0.7,5.2-1.8,10.3-3.4,15.1
		c-2.4,7.4-9.6,37.9-1.3,51c2.9,4.6,7.6,7.4,13.9,8.2c12.6,1.7,18.3,0.5,23.7-0.7c3.5-0.8,7.1-1.5,12.3-1.5c5.2,0,8.8,0.8,12.3,1.5
		c5.5,1.2,11.1,2.4,23.7,0.7c6.3-0.8,10.9-3.6,13.9-8.2c8.3-13.1,1.1-43.5-1.3-51C177,111.5,175.9,106.4,175.2,101.1z"/>
	<path class="st0" d="M158.6,120.7c3.6-3.7,5.2-8.5,4.8-14.3c-0.7-13.3-1.7-23.2-2.4-29.5l-26.5,29.8l16.9,18.9
		C154.1,124.4,156.6,122.8,158.6,120.7z"/>
</g>
</svg>
