<?xml version="1.0" encoding="utf-8"?>
<!-- Generator: Adobe Illustrator 24.2.3, SVG Export Plug-In . SVG Version: 6.00 Build 0)  -->
<svg version="1.1" id="Ebene_1" xmlns="http://www.w3.org/2000/svg" xmlns:xlink="http://www.w3.org/1999/xlink" x="0px" y="0px"
	 viewBox="0 0 260 260" style="enable-background:new 0 0 260 260;" xml:space="preserve">
<g>
	<path d="M130,4c33.7,0,65.3,13.1,89.1,36.9S256,96.3,256,130c0,33.7-13.1,65.3-36.9,89.1C195.3,242.9,163.7,256,130,256
		s-65.3-13.1-89.1-36.9C17.1,195.3,4,163.7,4,130c0-33.7,13.1-65.3,36.9-89.1S96.3,4,130,4 M130,0C58.2,0,0,58.2,0,130
		s58.2,130,130,130s130-58.2,130-130S201.8,0,130,0L130,0z"/>
	<g>
		<path d="M175.8,143.3c-12.7,0-23.1,10.3-23.1,23.1s10.3,23.1,23.1,23.1c12.7,0,23.1-10.3,23.1-23.1S188.6,143.3,175.8,143.3z
			 M184.7,168.5H178v6.7c0,1.2-1,2.1-2.1,2.1c-1.2,0-2.1-1-2.1-2.1v-6.7H167c-1.2,0-2.1-1-2.1-2.1s1-2.1,2.1-2.1h6.7v-6.7
			c0-1.2,1-2.1,2.1-2.1c1.2,0,2.1,1,2.1,2.1v6.7h6.7c1.2,0,2.1,1,2.1,2.1S185.9,168.5,184.7,168.5z"/>
		<path d="M143.9,127.3c9.8,0,17.7-8,17.7-17.7v-7.1c0-9.8-8-17.7-17.7-17.7s-17.7,8-17.7,17.7v7.1
			C126.2,119.4,134.1,127.3,143.9,127.3z M129.7,102.5c0-7.8,6.4-14.2,14.2-14.2s14.2,6.4,14.2,14.2v7.1c0,7.8-6.4,14.2-14.2,14.2
			s-14.2-6.4-14.2-14.2V102.5z"/>
		<path d="M145.7,166.4H112c0-17.6,14.3-31.9,31.9-31.9c7.2,0,14,2.3,19.6,6.7c0.8,0.6,1.9,0.5,2.5-0.3c0.6-0.8,0.5-1.9-0.3-2.5
			c-6.3-4.9-13.8-7.5-21.8-7.5c-19.6,0-35.5,15.9-35.5,35.5v1.8c0,1,0.8,1.8,1.8,1.8h35.5c1,0,1.8-0.8,1.8-1.8
			C147.4,167.2,146.7,166.4,145.7,166.4z"/>
		<path d="M96.6,113.1c9.8,0,17.7-8,17.7-17.7v-7.1c0-9.8-8-17.7-17.7-17.7s-17.7,8-17.7,17.7v7.1C78.8,105.2,86.8,113.1,96.6,113.1
			z M82.4,88.3c0-7.8,6.4-14.2,14.2-14.2s14.2,6.4,14.2,14.2v7.1c0,7.8-6.4,14.2-14.2,14.2s-14.2-6.4-14.2-14.2V88.3z"/>
		<path d="M98.4,152.2H64.6c0-17.6,14.3-31.9,31.9-31.9c7.2,0,14,2.3,19.6,6.7c0.8,0.6,1.9,0.5,2.5-0.3c0.6-0.8,0.5-1.9-0.3-2.5
			c-6.3-4.9-13.8-7.5-21.8-7.5c-19.6,0-35.5,15.9-35.5,35.5v1.8c0,1,0.8,1.8,1.8,1.8h35.5c1,0,1.8-0.8,1.8-1.8
			C100.1,153,99.3,152.2,98.4,152.2z"/>
	</g>
</g>
</svg>
